# This file uses centimeters as units for non-parametric coordinates.

v -30.000000 -30.000000 30.000000
v 30.000000 -30.000000 30.000000
v -30.000021 30.000014 30.000000
v 30.000021 29.999979 30.000000
v -30.000021 30.000014 -30.000000
v 30.000021 29.999979 -30.000000
v -30.000000 -30.000000 -30.000000
v 30.000000 -30.000000 -30.000000
vt 0.748013 0.376472
vt 0.999068 0.376472
vt 0.748013 0.627527
vt 0.999068 0.627527
vt 0.250781 0.627730
vt 0.501837 0.627730
vt 0.250781 0.878785
vt 0.501837 0.878785
vt 0.501616 0.627541
vt 0.250561 0.627513
vt 0.501644 0.376486
vt 0.250589 0.376458
vt 0.500794 0.376100
vt 0.249739 0.376081
vt 0.500813 0.125045
vt 0.249758 0.125025
vt 0.499861 0.376472
vt 0.750917 0.376472
vt 0.499861 0.627527
vt 0.750917 0.627527
vt 0.000583 0.376472
vt 0.251639 0.376472
vt 0.000583 0.627527
vt 0.251639 0.627527
vn 0.000000 0.000000 -1.000000
vn 0.000000 0.000000 -1.000000
vn 0.000000 0.000000 -1.000000
vn 0.000000 0.000000 -1.000000
vn 0.000000 0.000000 -1.000000
vn 0.000000 0.000000 -1.000000
vn 0.000000 -1.000000 0.000000
vn 0.000000 -1.000000 0.000000
vn 0.000000 -1.000000 0.000000
vn 0.000000 -1.000000 0.000000
vn 0.000000 -1.000000 0.000000
vn 0.000000 -1.000000 0.000000
vn 0.000000 0.000000 1.000000
vn 0.000000 0.000000 1.000000
vn 0.000000 0.000000 1.000000
vn 0.000000 0.000000 1.000000
vn 0.000000 0.000000 1.000000
vn 0.000000 0.000000 1.000000
vn -0.000000 1.000000 -0.000000
vn -0.000000 1.000000 -0.000000
vn -0.000000 1.000000 -0.000000
vn -0.000000 1.000000 -0.000000
vn -0.000000 1.000000 -0.000000
vn -0.000000 1.000000 -0.000000
vn -1.000000 0.000000 0.000000
vn -1.000000 0.000000 0.000000
vn -1.000000 0.000000 0.000000
vn -1.000000 0.000000 0.000000
vn -1.000000 0.000000 0.000000
vn -1.000000 0.000000 0.000000
vn 1.000000 0.000000 0.000000
vn 1.000000 0.000000 0.000000
vn 1.000000 0.000000 0.000000
vn 1.000000 0.000000 0.000000
vn 1.000000 0.000000 0.000000
vn 1.000000 0.000000 0.000000
f 1/1/1 3/3/2 2/2/3
f 3/3/4 4/4/5 2/2/6
f 3/5/7 5/7/8 4/6/9
f 5/7/10 6/8/11 4/6/12
f 5/9/13 7/11/14 6/10/15
f 7/11/16 8/12/17 6/10/18
f 7/13/19 1/15/20 8/14/21
f 1/15/22 2/16/23 8/14/24
f 2/17/25 4/19/26 8/18/27
f 4/19/28 6/20/29 8/18/30
f 7/21/31 5/23/32 1/22/33
f 5/23/34 3/24/35 1/22/36
